<?xml version="1.0" encoding="utf-8"?>
<!-- Generator: Adobe Illustrator 19.1.0, SVG Export Plug-In . SVG Version: 6.00 Build 0)  -->
<svg version="1.1" id="Layer_1" xmlns="http://www.w3.org/2000/svg" xmlns:xlink="http://www.w3.org/1999/xlink" x="0px" y="0px"
	 viewBox="0 0 300 200" style="enable-background:new 0 0 300 200;" xml:space="preserve">
<style type="text/css">
	.st0{fill:none;stroke:#000000;stroke-miterlimit:10;}
	.st1{font-family:'GaramondPremrPro-Disp';}
	.st2{font-size:5.4374px;}
	.st3{fill:#A7A9AC;}
</style>
<path class="st0" d="M132.7,78.1c0.9-2.4,0.1-5.3-2-6.9s-5-1.8-7.2-0.6c-2.3,1.2-3.8,3.7-3.9,6.2c-0.2,2.7,1.1,5.4,2.7,7.6
	c1.6,2.2,3.6,4.1,5.3,6.4c2.1,2.8,3.6,6.1,4.3,9.6c0.4,1.7,0.5,3.6,0.1,5.3c-1.1,5.3-6.9,8.5-12.3,8.4c-2.6-0.1-5.2-0.8-7.3-2.3
	c-2.1-1.6-3.5-4-3.5-6.6c0-2.4,1.2-4.7,2.9-6.3c1.7-1.6,4-2.6,6.3-3.3c5.8-1.6,12.1-0.7,17.9,1s11.4,4,17.3,5.5
	c1.7,0.4,3.4,0.8,5.1,0.4s3.3-1.6,3.6-3.2"/>
<path class="st0" d="M134.9,91.8c0.1-0.4,0.1-0.9,0.2-1.3c0,3.8,0.2,7.6,0.4,11.4c0.2,2.4,0.4,4.9-0.8,6.9c0.4-0.2,0.8-0.5,1.3-0.7
	c-0.3,0.4,0,1.2,0.6,1.2s1.1-0.3,1.3-0.8c0.3-0.5,0.3-1.1,0.3-1.6c-0.2,0.1-0.3,0.4-0.2,0.6c0.5,0.3,0.9-0.5,1.4-0.8
	c0.5-0.3,1.3,0,1.7,0.5s0.4,1.2,0.4,1.9c-0.3-0.1-0.4-0.6-0.2-0.9c0.2-0.3,0.5-0.5,0.7-0.6c1.8-0.9,3.9-1.1,5.7-0.5"/>
<path class="st0" d="M159.8,92.3c-0.5,0.5,0,1.3,0.7,1.4c0.6,0.1,1.3-0.3,1.8-0.7c2.3-1.9,3.8-4.8,4.1-7.9c0.1-0.8,0-1.7-0.5-2.4
	c-1-1.2-2.9-0.7-4.3,0c-5.2,2.6-9.3,7.4-11.1,12.9c-0.6,1.8-1,3.8-0.6,5.7c0.5,3.1,2.8,5.7,5.6,7.2c2.7,1.5,5.9,2.1,9,2.5
	c3.2,0.4,6.8,0.5,9.4-1.5"/>
<text transform="matrix(1 0 0 1 111.2264 122.8007)"><tspan x="0" y="0" class="st1 st2">STANISLAV</tspan><tspan x="26.4" y="0" class="st3 st1 st2">CHRISTIANSEN</tspan></text>
</svg>
