<?xml version="1.0" encoding="utf-8"?>
<!-- Generator: Adobe Illustrator 19.1.0, SVG Export Plug-In . SVG Version: 6.00 Build 0)  -->
<svg version="1.1" xmlns="http://www.w3.org/2000/svg" xmlns:xlink="http://www.w3.org/1999/xlink" x="0px" y="0px"
	 viewBox="0 0 960 560" style="enable-background:new 0 0 960 560;" xml:space="preserve">
<style type="text/css">
	.st0{fill:#040411;stroke:#C1C4C6;stroke-width:0.9686;stroke-miterlimit:10;}
	.st1{fill:#B7B7B7;}
	.st2{fill:#E0DCDC;}
	.st3{fill:#BCBCBC;}
	.st4{fill:#CCCACA;}
	.st5{fill:url(#SVGID_1_);}
	.st6{fill:url(#SVGID_2_);}
	.st7{fill:url(#SVGID_3_);}
	.st8{fill:url(#SVGID_4_);}
	.st9{fill:#FF9100;}
	.st10{opacity:0.38;}
	.st11{fill:#FFFFFF;stroke:#020202;stroke-miterlimit:10;}
	.st12{opacity:0.27;fill:#343534;}
	.st13{fill:#EBEDEB;stroke:#000000;stroke-width:1.0307;stroke-miterlimit:10;}
	.st14{fill:#E5E5E5;stroke:#000000;stroke-miterlimit:10;}
	.st15{fill:#B8BCBC;}
	.st16{fill:#FFFFFF;}
	.st17{opacity:0.3;}
	.st18{opacity:0.4;fill:#191919;}
	.st19{opacity:0.94;}
	.st20{opacity:0.94;fill:#F7F7F7;}
	.st21{fill:#FFFFFF;stroke:#000000;stroke-miterlimit:10;}
</style>
<g id="Layer_2">
	<rect x="-0.2" class="st0" width="960" height="560"/>
</g>
<g id="Layer_1">
	<g>
		<path class="st1" d="M793.5,381.2c0,61.7-50,111.8-111.8,111.8c-41.9,0-78.5-23.1-97.6-57.3c-9-16.1-14.2-34.7-14.2-54.5
			c0-56.4,41.8-103,96.1-110.7c3.2-0.5,6.5-0.8,9.8-0.9c2-0.1,3.9-0.2,5.9-0.2c5.1,0,10.2,0.4,15.2,1
			C751.5,277.9,793.5,324.6,793.5,381.2z"/>
		<path class="st2" d="M784.5,372.1c0,56.9-49.5,103-110.5,103c-35.3,0-66.7-15.4-86.9-39.4c-9.7-16.1-15.2-34.7-15.2-54.5
			c0-59.7,50.3-108.5,113.6-111.6C741.1,275,784.5,318.8,784.5,372.1z"/>
		<circle class="st3" cx="648.1" cy="356.4" r="30"/>
		<circle class="st4" cx="650" cy="358.2" r="28.5"/>
		<circle class="st3" cx="734.1" cy="397.2" r="16.3"/>
		<circle class="st4" cx="735.1" cy="398.2" r="15.5"/>
		<circle class="st3" cx="587.3" cy="407.5" r="6.3"/>
		<circle class="st4" cx="587.7" cy="407.9" r="6"/>
		<circle class="st3" cx="685.1" cy="359.3" r="3.4"/>
		<circle class="st4" cx="685.3" cy="359.5" r="3.2"/>
		<circle class="st3" cx="666.4" cy="449.2" r="15"/>
		<circle class="st4" cx="667.3" cy="450.1" r="14.2"/>
	</g>
	<g>
		<linearGradient id="SVGID_1_" gradientUnits="userSpaceOnUse" x1="460.6005" y1="343.5752" x2="460.6005" y2="186.9071">
			<stop  offset="0.1576" style="stop-color:#FFFFFF;stop-opacity:0"/>
			<stop  offset="0.7044" style="stop-color:#32FFC8"/>
		</linearGradient>
		<path class="st5" d="M460.6,343.6L460.6,343.6c-3.6,0-6.5-2.9-6.5-6.5V193.4c0-3.6,2.9-6.5,6.5-6.5l0,0c3.6,0,6.5,2.9,6.5,6.5V337
			C467.1,340.6,464.2,343.6,460.6,343.6z"/>
		<linearGradient id="SVGID_2_" gradientUnits="userSpaceOnUse" x1="473.6724" y1="370.3726" x2="473.6724" y2="186.9071">
			<stop  offset="0.1576" style="stop-color:#FFFFFF;stop-opacity:0"/>
			<stop  offset="0.7044" style="stop-color:#C3ADFF"/>
		</linearGradient>
		<path class="st6" d="M473.7,370.4L473.7,370.4c-3.6,0-6.5-2.9-6.5-6.5V193.4c0-3.6,2.9-6.5,6.5-6.5l0,0c3.6,0,6.5,2.9,6.5,6.5
			v170.4C480.2,367.4,477.3,370.4,473.7,370.4z"/>
		<linearGradient id="SVGID_3_" gradientUnits="userSpaceOnUse" x1="486.7443" y1="386.0588" x2="486.7443" y2="186.9071">
			<stop  offset="0.1576" style="stop-color:#FFFFFF;stop-opacity:0"/>
			<stop  offset="0.7044" style="stop-color:#FCEE21"/>
		</linearGradient>
		<path class="st7" d="M487,386.1h-0.5c-3.4,0-6.3-2.8-6.3-6.3V193.2c0-3.4,2.8-6.3,6.3-6.3h0.5c3.4,0,6.3,2.8,6.3,6.3v186.6
			C493.3,383.2,490.5,386.1,487,386.1z"/>
		<linearGradient id="SVGID_4_" gradientUnits="userSpaceOnUse" x1="499.8162" y1="408.9346" x2="499.8162" y2="186.9071">
			<stop  offset="0.1576" style="stop-color:#FFFFFF;stop-opacity:0"/>
			<stop  offset="0.7044" style="stop-color:#FF6D71"/>
		</linearGradient>
		<path class="st8" d="M500,408.9h-0.3c-3.5,0-6.4-2.9-6.4-6.4V193.3c0-3.5,2.9-6.4,6.4-6.4h0.3c3.5,0,6.4,2.9,6.4,6.4v209.3
			C506.4,406.1,503.5,408.9,500,408.9z"/>
		<path class="st9" d="M509,210.3c0,11.5-9.3,20.7-20.7,20.7h-17.5c-11.5,0-20.7-9.3-20.7-20.7v-25.5c0-11.5,9.3-20.7,20.7-20.7
			h17.5c11.5,0,20.7,9.3,20.7,20.7V210.3z"/>
		<path class="st10" d="M509,184.5v25.7c0,11.4-9,20.7-20.4,20.7H479v-67h9.6C500,164,509,173.1,509,184.5z"/>
		<path class="st11" d="M476.4,220.4h-6c-1.9,0-3.4,1.5-3.4,3.4v26.9c0,1.9,1.5,3.4,3.4,3.4h6c1.9,0,3.4-1.5,3.4-3.4v-26.9
			C479.9,221.9,478.3,220.4,476.4,220.4z"/>
		<path class="st11" d="M490.2,227.6h-5.1c-2.1,0-3.9,1.8-3.9,3.9v26c0,2.1,1.8,3.9,3.9,3.9h5.1c2.1,0,3.9-1.8,3.9-3.9v-26
			C494.1,229.4,492.3,227.6,490.2,227.6z"/>
		<path class="st12" d="M493,232.6v9.7l-13-5.8v-3.9c0-3.5,3-6.5,6.5-6.5S493,229,493,232.6z"/>
		<path class="st12" d="M479,227.6v9.7l-13-5.8v-3.9c0-3.5,3-6.5,6.5-6.5S479,224,479,227.6z"/>
		<path class="st13" d="M458.2,182.2l0,39.7c0,6.8,5.6,12.4,12.4,12.4h18c6.8,0,12.4-5.6,12.4-12.4v-39.7
			C500.5,169.7,457.7,169.7,458.2,182.2z"/>
		<path class="st12" d="M500.7,180.1l0.2,16.9l-41.8-19.5C466.5,169.1,499.3,169.4,500.7,180.1z"/>
		<path class="st14" d="M456.2,182.2l0,29.7c0,2.6-2.1,4.7-4.7,4.7h0c0,0,0,0,0,0c-2.6,0-4.7-2.1-4.7-4.7l0-29.7
			c0-2.6,2.1-4.6,4.7-4.6h0C454.1,177.5,456.2,179.6,456.2,182.2z"/>
		<path class="st15" d="M514.8,147.2c-0.2,14.2-5.3,27.9-15.9,29.7c-1.2,0.2-2.4,0.4-3.7,0.5c-11.7,1.5-25.8,1.6-36-0.8
			c-10-2.4-14.6-15.4-14.4-29.4c0.2-18,15.7-32.4,35-32.4c5.8,0,11.3,1.3,16.1,3.6C507.3,123.7,515,134.6,514.8,147.2z"/>
		<path class="st16" d="M505,147.4c0,11.4-3.7,21.8-9.7,30c-11.7,1.5-25.8,1.6-36-0.8c-10-2.4-14.6-15.4-14.4-29.4
			c0.2-18,15.7-32.4,35-32.4c5.8,0,11.3,1.3,16.1,3.6C501.6,126.4,505,136.4,505,147.4z"/>
		<path class="st9" d="M520.2,143.6l0,4.9c0,2.7-2.2,4.9-4.9,4.9l-35.5-0.1l-35.5-0.1c-2.7,0-4.9-2.2-4.9-4.9l0-4.8
			c0-2.7,2.2-4.9,4.9-4.9l35.5,0.1l35.5,0.1C518,138.7,520.2,140.9,520.2,143.6z"/>
		<path class="st17" d="M520.2,143.6l0,4.9c0,2.7-2.6,4.9-5.3,4.9l-35.9-0.1v-14.6l35.9,0.1C517.6,138.7,520.2,140.9,520.2,143.6z"
			/>
		<path d="M515.7,144c0,9-3.5,21.9-11.9,19.5c-6.7-1.9-41.9-1.8-48.7-0.2c-8.3,2-11.5-10.3-11.5-19.3C443.7,111,515.7,111,515.7,144
			z"/>
		<path class="st18" d="M508.2,143c0,8-3,20.3-10.4,18.2c-5.9-1.7-36.9-1.7-42.8-0.2c-7.3,1.9-10.1-10-10.1-18
			C444.9,112,508.2,113,508.2,143z"/>
		<g class="st19">
			<path class="st16" d="M449.7,154.8C449.7,154.8,449.7,154.8,449.7,154.8c-0.8,1-1.8,0.9-2.2-0.2c-2-5.6-2-11.8,0-17.4
				c0.4-1.1,1.4-1.2,2.2-0.2l0,0c0.8,1,1.1,2.3,0.9,3c-1.4,3.8-1.4,8,0,11.8C450.8,152.5,450.5,153.8,449.7,154.8z"/>
		</g>
		<g class="st19">
			<path class="st16" d="M454.3,152.1C454.3,152.1,454.3,152.1,454.3,152.1c-0.5,0.7-1.2,0.6-1.5-0.2c-1.4-3.9-1.4-8.2,0-12.2
				c0.3-0.8,1-0.8,1.5-0.2c0,0,0,0,0,0c0.5,0.7,0.8,1.6,0.6,2.1c-1,2.7-1,5.6,0,8.3C455.1,150.5,454.8,151.5,454.3,152.1z"/>
		</g>
		<path class="st20" d="M444,138.7c-0.2-0.3-5,1.8-4,4.2v0.7C441,142.2,442.7,140.5,444,138.7z"/>
		<path class="st21" d="M512.2,183.2l0,20.1l0,9.6c0,2.6-2.1,4.7-4.7,4.7h0c0,0,0,0,0,0c-2.6,0-4.7-2.1-4.7-4.7l0-14.1l0-15.6
			c0-2.6,2.1-4.6,4.7-4.6h0.1c1.4,0,2.6,0.6,3.5,1.6C511.8,180.9,512.2,182,512.2,183.2z"/>
		<path class="st16" d="M448.8,212.4L448.8,212.4c-0.4,0-0.8-0.3-0.8-0.8v-29.7c0-0.4,0.3-0.8,0.8-0.8l0,0c0.4,0,0.8,0.3,0.8,0.8
			v29.7C449.6,212,449.2,212.4,448.8,212.4z"/>
		<path class="st12" d="M512.2,182.2l0,20.1l-9.4-4.5l0-15.3c0-2.6,2.1-4.4,4.7-4.4h0.1c1.4,0,2.6,0.4,3.5,1.4
			C511.8,180.2,512.2,181,512.2,182.2z"/>
	</g>
</g>
</svg>
